HIERARCHY
ROOT Hips
{
	OFFSET -3.958830 18.904000 13.208200
	CHANNELS 6 Xposition Yposition Zposition Zrotation Yrotation Xrotation 
	JOINT LHipJoint
	{
		OFFSET 0.000000 0.000000 0.000000
		CHANNELS 3 Zrotation Yrotation Xrotation
		JOINT LeftUpLeg
		{
			OFFSET 1.800000 -1.400000 0.085000
			CHANNELS 3 Zrotation Yrotation Xrotation
			JOINT LeftLeg
			{
				OFFSET 2.215000 -6.000000 0.000000
				CHANNELS 3 Zrotation Yrotation Xrotation
				JOINT LeftFoot
				{
					OFFSET 2.500000 -6.900000 0.000000
					CHANNELS 3 Zrotation Yrotation Xrotation
					JOINT LeftToeBase
					{
						OFFSET 0.200000 -0.500000 1.950000
						CHANNELS 3 Zrotation Yrotation Xrotation
						End Site
						{
							OFFSET 0.000000 0.000000 0.000000
						}
					}
				}
			}
		}
	}
	JOINT RHipJoint
	{
		OFFSET 0.000000 0.000000 0.000000
		CHANNELS 3 Zrotation Yrotation Xrotation
		JOINT RightUpLeg
		{
			OFFSET -1.800000 -1.400000 0.085000
			CHANNELS 3 Zrotation Yrotation Xrotation
			JOINT RightLeg
			{
				OFFSET -2.215000 -6.000000 0.000000
				CHANNELS 3 Zrotation Yrotation Xrotation
				JOINT RightFoot
				{
					OFFSET -2.500000 -6.900000 0.000000
					CHANNELS 3 Zrotation Yrotation Xrotation
					JOINT RightToeBase
					{
						OFFSET -0.200000 -0.500000 1.950000
						CHANNELS 3 Zrotation Yrotation Xrotation
						End Site
						{
							OFFSET 0.000000 0.000000 0.000000
						}
					}
				}
			}
		}
	}
	JOINT LowerBack
	{
		OFFSET 0.000000 0.000000 0.000000
		CHANNELS 3 Zrotation Yrotation Xrotation
		JOINT Spine
		{
			OFFSET -0.087000 1.940000 -0.288900
			CHANNELS 3 Zrotation Yrotation Xrotation
			JOINT Spine1
			{
				OFFSET 0.000000 1.950000 0.060000
				CHANNELS 3 Zrotation Yrotation Xrotation
				JOINT Neck
				{
					OFFSET 0.000000 0.000000 0.000000
					CHANNELS 3 Zrotation Yrotation Xrotation
					JOINT Neck1
					{
						OFFSET 0.000000 1.600000 0.340000
						CHANNELS 3 Zrotation Yrotation Xrotation
						JOINT Head
						{
							OFFSET 0.000000 1.667000 -0.240000
							CHANNELS 3 Zrotation Yrotation Xrotation
							End Site
							{
								OFFSET 0.000000 0.000000 0.000000
							}
						}
					}
				}
				JOINT LeftShoulder
				{
					OFFSET 0.000000 0.000000 0.000000
					CHANNELS 3 Zrotation Yrotation Xrotation
					JOINT LeftArm
					{
						OFFSET 2.700000 1.550000 -0.730000
						CHANNELS 3 Zrotation Yrotation Xrotation
						JOINT LeftForeArm
						{
							OFFSET 5.450000 0.000000 0.000000
							CHANNELS 3 Zrotation Yrotation Xrotation
							JOINT LeftHand
							{
								OFFSET 3.450000 0.000000 0.000000
								CHANNELS 3 Zrotation Yrotation Xrotation
								JOINT LeftHandIndex1
								{
									OFFSET 0.750000 0.000000 0.000000
									CHANNELS 3 Zrotation Yrotation Xrotation
									End Site
									{
										OFFSET 0.000000 0.000000 0.000000
									}
								}
							}
						}
					}
				}
				JOINT RightShoulder
				{
					OFFSET 0.000000 0.000000 0.000000
					CHANNELS 3 Zrotation Yrotation Xrotation
					JOINT RightArm
					{
						OFFSET -2.700000 1.550000 -0.730000
						CHANNELS 3 Zrotation Yrotation Xrotation
						JOINT RightForeArm
						{
							OFFSET -5.450000 0.000000 0.000000
							CHANNELS 3 Zrotation Yrotation Xrotation
							JOINT RightHand
							{
								OFFSET -3.450000 0.000000 0.000000
								CHANNELS 3 Zrotation Yrotation Xrotation
								JOINT RightHandIndex1
								{
									OFFSET -0.750000 0.000000 0.000000
									CHANNELS 3 Zrotation Yrotation Xrotation
									End Site
									{
										OFFSET 0.000000 0.000000 0.000000
									}
								}
							}
						}
					}
				}
			}
		}
	}
}
MOTION
Frames: 7
Frame Time: 0.016667
-1.264670 17.275580 -1.579840 -16.267964 6.943002 -3.739164 -15.210500 12.116889 2.239735 24.827989 -0.859157 -22.903494 4.394914 4.504214 13.775933 -0.875505 4.210394 3.141514 0.856980 0.265110 0.738180 18.400988 -9.031919 5.054345 -15.011268 3.357219 -43.628606 97.709940 -66.972258 33.577910 -3.297223 -12.245947 0.904723 0.143870 0.282090 0.210730 -3.665416 -2.018712 -8.828799 -17.769927 0.796060 27.183850 -14.378126 1.003879 7.181242 0.098360 -6.419102 -18.335736 -24.889237 17.192610 64.156135 6.698780 4.995440 -11.420050 5.138011 -24.579172 7.101615 -19.690018 -14.294930 -4.745646 -114.083350 -49.725989 53.464005 -3.317228 3.197832 1.091300 -0.041620 0.143430 0.339180 -4.019994 30.691595 12.051757 53.404705 21.215566 -6.794870 56.007628 45.211622 13.505406 1.887912 -1.494715 -0.307600 0.555210 -0.152730 -0.361410 
-1.244170 17.255410 -1.612230 -16.889710 8.036733 -4.419836 -15.204690 11.976105 2.370548 26.130195 -0.755761 -24.081285 3.764201 4.962384 15.264802 -0.828427 4.400520 3.053534 0.937700 0.370120 0.797930 18.436298 -8.996575 5.005683 -15.501343 3.015903 -43.158391 96.014174 -67.736798 34.827658 -3.319086 -12.241930 0.911855 0.199310 0.231620 0.208750 -3.730945 -1.948445 -8.894617 -16.910976 -0.146219 29.282074 -15.043557 0.266999 7.829605 0.211095 -6.574007 -17.735139 -24.605359 17.182669 63.033981 5.112420 5.934630 -12.126320 5.241651 -24.009698 6.970801 -19.498320 -14.105417 -5.322379 -116.266388 -49.686960 54.907200 -3.277358 3.252136 1.063030 -0.051750 0.172920 0.374520 -4.487549 29.947174 11.544751 53.287047 21.891144 -6.915682 56.403248 46.019085 13.859723 1.888257 -1.566874 -0.272640 0.537270 -0.228350 -0.360110 
-1.220600 17.231570 -1.622070 -17.503927 7.893068 -3.733184 -15.192191 11.536433 2.552634 28.380770 -0.304145 -25.587629 2.146537 5.932407 16.905447 -0.813598 4.904477 2.888193 0.894130 0.330970 0.739290 18.545460 -8.678488 5.241317 -16.920053 4.021367 -44.745673 90.905775 -69.231057 39.491422 -3.355310 -12.484408 0.906772 0.199080 0.318060 0.172360 -3.888083 -1.682495 -9.125611 -15.368362 -0.676485 30.178551 -16.358938 0.029024 7.380048 0.194486 -6.759352 -17.526769 -25.032284 17.986461 62.864843 5.301580 6.273690 -11.119740 3.909778 -23.655557 6.899639 -19.089905 -13.210060 -5.573531 -118.226003 -48.652009 55.394495 -3.322128 3.199738 1.064650 -0.009170 0.128840 0.408700 -3.188779 29.359957 11.208609 54.262752 21.882150 -6.891744 55.405317 45.507570 13.375788 1.863208 -1.524220 -0.336110 0.621340 -0.204430 -0.350850 
-1.174140 17.174400 -1.644030 -18.541730 7.545365 -3.033525 -15.188395 10.945901 2.810881 31.216134 0.478374 -27.402985 0.456346 7.272080 19.307609 -0.749483 5.589503 2.605003 0.882690 0.317130 0.749180 18.679119 -8.187333 5.580963 -18.629729 5.519052 -46.479943 81.953622 -71.952205 48.155867 -3.506183 -13.096751 0.761481 0.189720 0.300340 0.169240 -4.066525 -1.389724 -9.453973 -12.839083 -1.585019 31.476481 -17.808521 -0.463054 6.983637 0.754228 -6.952460 -17.432719 -25.493847 18.658196 63.254987 4.070540 6.888340 -11.209980 2.140446 -23.050777 7.124123 -18.800366 -11.256897 -6.086757 -120.581022 -48.053839 56.776599 -3.339162 3.199428 1.071270 -0.012610 0.134200 0.391050 -2.593536 28.667471 10.767258 55.118458 22.103184 -6.934068 55.115566 45.254716 13.222764 1.873793 -1.515235 -0.338650 0.617890 -0.196380 -0.363730 
-1.128800 17.098960 -1.675580 -19.422039 7.709317 -2.077581 -15.200318 10.364634 3.185872 33.789916 1.138186 -29.748023 -1.165440 8.640410 21.702035 -0.722581 6.335039 2.303526 0.868650 0.255890 0.783340 18.796647 -7.703604 5.819806 -20.921794 6.761393 -48.072194 73.960327 -70.571638 54.161910 -3.655669 -13.861581 0.554490 0.165760 0.271890 0.173470 -4.205558 -1.163905 -9.784231 -10.232213 -2.373286 32.777118 -18.777980 -0.760330 6.575790 1.254533 -6.959891 -17.523882 -25.946139 18.824950 64.012623 3.515890 6.731250 -11.334140 0.463868 -22.995271 7.139140 -18.695144 -10.367036 -6.392040 -121.810936 -47.827515 57.675243 -3.348711 3.187390 1.118300 -0.029840 0.130530 0.347050 -1.968718 28.379304 10.762442 56.013919 21.082116 -7.629038 56.100545 45.337263 13.560492 1.875842 -1.507071 -0.361540 0.600620 -0.169400 -0.407360 
-1.093880 17.016140 -1.705990 -19.273327 8.455909 -1.385002 -15.250816 9.942009 3.633039 35.792647 1.473582 -31.763933 -3.701157 10.114305 23.811278 -0.670933 7.059127 2.002720 0.886500 0.251750 0.835440 18.848053 -7.391743 5.830468 -23.591815 6.919085 -48.960102 71.832655 -65.786481 53.025317 -3.622882 -13.910547 0.489441 0.154920 0.224900 0.195270 -4.192948 -1.070413 -10.000007 -9.438092 -2.325772 34.475572 -18.401670 -0.815880 6.280542 1.330232 -6.830378 -17.257370 -25.885022 18.572067 64.639506 3.596920 6.340960 -12.830620 -0.392785 -22.349299 6.822120 -19.326616 -10.400417 -6.531515 -120.933944 -47.502779 56.472867 -3.347273 3.186432 1.152260 -0.061980 0.159940 0.305620 -1.309988 27.559030 10.638069 56.608711 19.547635 -8.430900 58.106797 44.822906 14.030441 1.893313 -1.507682 -0.342880 0.575470 -0.160190 -0.429560 
-1.059410 16.909710 -1.732190 -18.791315 9.621703 -0.725578 -15.313803 9.541871 4.184088 37.878473 1.671655 -33.921886 -6.989016 11.856800 25.983654 -0.589636 7.879981 1.698871 0.898110 0.273140 0.834270 18.877214 -7.136401 5.715011 -26.089512 6.550480 -48.669940 71.176677 -59.608197 49.342374 -3.494393 -13.584395 0.533899 0.163480 0.200240 0.192490 -4.128244 -1.033859 -10.199811 -9.003875 -2.384814 36.117159 -17.709407 -1.096556 5.817391 1.401121 -6.677777 -16.996673 -25.759364 18.335732 65.407527 3.566730 5.934410 -13.860720 -2.059046 -21.894532 6.493271 -19.851155 -10.264956 -6.570348 -119.769863 -45.745439 53.244932 -3.317918 3.185398 1.179630 -0.084850 0.186600 0.310590 0.189778 26.890346 10.498361 56.437586 17.768755 -9.279901 60.762398 44.039007 14.620834 1.901222 -1.507007 -0.340660 0.581090 -0.166310 -0.431430 
